<svg width="42" height="41" viewBox="0 0 42 41" fill="none" xmlns="http://www.w3.org/2000/svg">
<g id="Behance">
<g id="Behance_2">
<rect id="Rectangle" width="42" height="41" rx="20.5"/>
<path id="Vector" d="M16.1284 11.9127C16.9366 11.9127 17.6826 11.9733 18.3664 12.1554C19.0503 12.2768 19.6098 12.5195 20.1071 12.823C20.6045 13.1264 20.9775 13.5512 21.2262 14.0974C21.4748 14.6436 21.5992 15.3112 21.5992 16.0394C21.5992 16.8891 21.4127 17.6173 20.9775 18.1635C20.6045 18.7097 19.9828 19.1952 19.2368 19.5593C20.2936 19.8628 21.1018 20.409 21.5992 21.1372C22.0965 21.8655 22.4074 22.7758 22.4074 23.8075C22.4074 24.6571 22.2208 25.3854 21.91 25.9922C21.5992 26.5991 21.1018 27.1453 20.5423 27.5094C19.9828 27.8736 19.299 28.177 18.5529 28.3591C17.8069 28.5411 17.0609 28.6625 16.3149 28.6625H7.98438V11.9127H16.1284ZM15.631 18.7097C16.3149 18.7097 16.8744 18.5276 17.3096 18.2242C17.7448 17.9208 17.9313 17.3746 17.9313 16.707C17.9313 16.3429 17.8691 15.9787 17.7448 15.736C17.6204 15.4932 17.4339 15.3112 17.1852 15.1291C16.9366 15.0077 16.6879 14.8864 16.3771 14.8257C16.0662 14.765 15.7554 14.765 15.3824 14.765H11.7766V18.7097H15.631ZM15.8175 25.8709C16.1906 25.8709 16.5636 25.8102 16.8744 25.7495C17.1852 25.6888 17.4961 25.5674 17.7448 25.3854C17.9934 25.2033 18.1799 25.0212 18.3664 24.7178C18.4908 24.4144 18.6151 24.0502 18.6151 23.6254C18.6151 22.7758 18.3664 22.1689 17.8691 21.7441C17.3717 21.38 16.6879 21.1979 15.8797 21.1979H11.7766V25.8709H15.8175ZM27.816 25.8102C28.3133 26.2957 29.0593 26.5384 30.054 26.5384C30.7379 26.5384 31.3595 26.3564 31.8569 26.0529C32.3542 25.6888 32.6651 25.3247 32.7894 24.9605H35.8356C35.3383 26.417 34.5923 27.4487 33.5976 28.1163C32.6029 28.7232 31.4217 29.0873 29.9919 29.0873C28.9972 29.0873 28.1268 28.9053 27.3186 28.6018C26.5104 28.2984 25.8888 27.8736 25.3293 27.2667C24.7697 26.7205 24.3346 26.0529 24.0859 25.264C23.7751 24.475 23.6507 23.6254 23.6507 22.6544C23.6507 21.7441 23.7751 20.8945 24.0859 20.1055C24.3967 19.3166 24.8319 18.649 25.3914 18.0421C25.9509 17.4959 26.6348 17.0104 27.3808 16.707C28.189 16.4036 28.9972 16.2215 29.9919 16.2215C31.0487 16.2215 31.9812 16.4036 32.7894 16.8284C33.5976 17.2532 34.2193 17.7387 34.7166 18.4669C35.214 19.1345 35.587 19.9235 35.8356 20.7731C35.96 21.6227 36.0221 22.4723 35.96 23.4433H26.9456C26.9456 24.4144 27.3186 25.3247 27.816 25.8102ZM31.7326 19.4379C31.2974 19.0131 30.6135 18.7704 29.8053 18.7704C29.2458 18.7704 28.8107 18.8918 28.4377 19.0738C28.0646 19.2559 27.816 19.4986 27.5673 19.7414C27.3186 19.9841 27.1943 20.2876 27.1321 20.591C27.07 20.8945 27.0078 21.1372 27.0078 21.38H32.6029C32.4786 20.4696 32.1677 19.8628 31.7326 19.4379ZM26.2618 13.0657H33.2246V14.7043H26.2618V13.0657Z" fill="white"/>
</g>
</g>
</svg>
