<svg width="40" height="42" viewBox="0 0 40 42" fill="none" xmlns="http://www.w3.org/2000/svg">
<g id="GitHub">
<g id="GitHub_2">
<rect id="Rectangle" width="40" height="42" rx="20"/>
<path id="Exclude" fill-rule="evenodd" clip-rule="evenodd" d="M26.1854 40.9751C24.2374 41.6404 22.1585 42 20 42C17.8401 42 15.7598 41.6399 13.8107 40.9738C14.7111 41.0871 15.0438 40.4716 15.0438 39.9401C15.0438 39.7087 15.04 39.3007 15.035 38.7548C15.0291 38.1231 15.0216 37.3069 15.0163 36.3664C9.45251 37.6363 8.27876 33.5491 8.27876 33.5491C7.37001 31.122 6.05876 30.4757 6.05876 30.4757C4.24251 29.1714 6.19626 29.1979 6.19626 29.1979C8.20251 29.3464 9.25876 31.3637 9.25876 31.3637C11.0438 34.5751 13.94 33.6479 15.08 33.1092C15.2613 31.7513 15.7788 30.825 16.35 30.2998C11.9088 29.7693 7.24001 27.9672 7.24001 19.9148C7.24001 17.6201 8.01876 15.7448 9.29876 14.275C9.09251 13.7432 8.40626 11.6075 9.49376 8.71404C9.49376 8.71404 11.1738 8.14921 14.9938 10.868C16.59 10.4017 18.3 10.1694 20.0013 10.16C21.7 10.1691 23.4113 10.4017 25.0088 10.868C28.8263 8.14921 30.5025 8.71404 30.5025 8.71404C31.5938 11.6075 30.9075 13.7432 30.7013 14.275C31.9838 15.7448 32.7575 17.6201 32.7575 19.9148C32.7575 27.9868 28.0813 29.7641 23.6263 30.2841C24.3438 30.933 24.9838 32.2147 24.9838 34.1757C24.9838 36.0543 24.9726 37.6897 24.9652 38.7734C24.9615 39.3104 24.9588 39.7119 24.9588 39.9404C24.9588 40.4744 25.2834 41.0911 26.1854 40.9751Z" fill="white"/>
</g>
</g>
</svg>
