<svg width="42" height="42" viewBox="0 0 42 42" fill="none" xmlns="http://www.w3.org/2000/svg">
<g id="LinkedIn">
<g id="LinkedIn_2">
<rect id="Rectangle" width="42" height="42" rx="21"/>
<g id="Group">
<path id="Path" d="M32.6594 30.9094C31.2813 30.8766 29.936 30.8766 28.5578 30.9094C28.2625 30.9094 28.1969 30.8438 28.1969 30.5484C28.1969 28.1203 28.1969 25.6594 28.1969 23.2313C28.1969 22.6734 28.1641 22.1156 28 21.5906C27.5078 19.8844 25.5391 19.2609 24.1281 20.4094C23.3735 21 23.0781 21.8203 23.0781 22.8047C23.0781 25.1016 23.0781 27.3984 23.0781 29.6953C23.0781 29.9906 23.0453 30.2859 23.0781 30.6141C23.111 30.8766 22.9797 30.9422 22.75 30.9094C21.3391 30.9094 19.961 30.9094 18.55 30.9094C18.2875 30.9094 18.2219 30.8438 18.2219 30.5813C18.2547 28.5141 18.2547 26.4469 18.2547 24.3469C18.2547 21.7875 18.2547 19.2281 18.2219 16.7016C18.2219 16.4063 18.2875 16.3406 18.55 16.3406C19.961 16.3406 21.3391 16.3406 22.75 16.3406C23.0125 16.3406 23.0781 16.4063 23.0781 16.6688C23.0781 17.1938 23.0781 17.7188 23.0781 18.3422C23.1766 18.2438 23.2094 18.2109 23.2422 18.1781C24.5219 16.3078 26.3266 15.7828 28.4594 16.1109C30.9203 16.5047 32.4953 18.2109 32.8891 20.8359C32.9875 21.4594 33.0203 22.0828 33.0203 22.7063C33.0203 25.3313 33.0203 27.9234 33.0203 30.5484C33.0203 30.8109 32.9547 30.9094 32.6594 30.9094Z" fill="white"/>
<path id="Path_2" d="M15.5969 23.625C15.5969 25.9219 15.5969 28.2188 15.5969 30.5156C15.5969 30.811 15.5313 30.9094 15.2359 30.9094C13.8578 30.8766 12.4797 30.9094 11.1016 30.9094C10.8391 30.9094 10.7734 30.8438 10.7734 30.5813C10.7734 25.9547 10.7734 21.2953 10.7734 16.6688C10.7734 16.4391 10.8391 16.3406 11.1016 16.3406C12.5125 16.3406 13.9234 16.3406 15.3344 16.3406C15.6297 16.3406 15.6625 16.4391 15.6625 16.7016C15.5969 18.9984 15.5969 21.2953 15.5969 23.625Z" fill="white"/>
<path id="Path_3" d="M15.8266 12.5344C15.4984 13.8469 14.1531 14.6016 12.611 14.3391C10.9703 14.0766 10.0516 12.4688 10.6422 10.8938C11.036 9.90939 11.9875 9.31877 13.2016 9.35158C15.0391 9.31877 16.2531 10.7953 15.8266 12.5344Z" fill="white"/>
</g>
</g>
</g>
</svg>
